<?xml version="1.0" encoding="utf-8"?>
<!-- Generator: Adobe Illustrator 24.0.3, SVG Export Plug-In . SVG Version: 6.00 Build 0)  -->
<svg version="1.1" id="Layer_1" focusable="false" xmlns="http://www.w3.org/2000/svg" xmlns:xlink="http://www.w3.org/1999/xlink"
	 x="0px" y="0px" viewBox="0 0 576 512" style="enable-background:new 0 0 576 512;" xml:space="preserve">
<style type="text/css">
	.st0{fill:#600536;}
</style>
<path class="st0" d="M568.2,192c-29,0.1-135,6.2-213.8,83c-33.1,29.6-53.4,63.3-66.4,94.9c-13-31.6-33.3-65.2-66.4-94.9
	c-78.8-76.8-184.8-82.9-213.8-83c-4.4,0-7.8,3.4-7.8,7.8C0.2,227.7,7.1,326,88.8,399.1C172.8,480.9,256,480,288,480
	s115.2,1,199.2-80.9c81.6-73.2,88.5-171.4,88.8-199.3C576,195.4,572.7,192,568.2,192L568.2,192z M288,302.6
	c12.8-18.9,27.6-35.8,44.1-50.5c19.1-18.6,39.6-33.3,60.3-45.2c-16.4-70.5-51.7-133.1-96.7-172.2c-4.1-3.6-11-3.6-15.1,0
	c-45,39.1-80.3,101.6-96.7,172.1c20.4,11.7,40.5,26.1,59.2,44.4C260,266.4,275.1,283.7,288,302.6z"/>
</svg>
