<?xml version="1.0" encoding="utf-8"?>
<!-- Generator: Adobe Illustrator 24.0.3, SVG Export Plug-In . SVG Version: 6.00 Build 0)  -->
<svg version="1.1" id="Layer_1" focusable="false" xmlns="http://www.w3.org/2000/svg" xmlns:xlink="http://www.w3.org/1999/xlink"
	 x="0px" y="0px" viewBox="0 0 640 512" style="enable-background:new 0 0 640 512;" xml:space="preserve">
<style type="text/css">
	.st0{fill:#600536;}
</style>
<path class="st0" d="M631.2,96.5L436.5,0C416.4,27.8,371.9,47.2,320,47.2S223.6,27.8,203.5,0L8.8,96.5c-7.9,4-11.1,13.6-7.2,21.5
	l57.2,114.5c4,7.9,13.6,11.1,21.5,7.2l56.6-27.7c10.6-5.2,23,2.5,23,14.4V480c0,17.7,14.3,32,32,32h256c17.7,0,32-14.3,32-32V226.3
	c0-11.8,12.4-19.6,23-14.4l56.6,27.7c7.9,4,17.5,0.8,21.5-7.2L638.3,118C642.3,110.1,639.1,100.4,631.2,96.5z"/>
</svg>
